<svg width="42" height="42" viewBox="0 0 42 42" fill="none" xmlns="http://www.w3.org/2000/svg">
<path d="M9.4209 5.01502C9.38901 4.89338 9.32576 4.78224 9.23747 4.69269C9.14919 4.60314 9.03895 4.53833 8.91778 4.50471L6.50278 3.85784C6.37731 3.8206 6.24406 3.81832 6.1174 3.85125C5.99073 3.88419 5.87546 3.95108 5.78403 4.04471L4.04465 5.80565C3.95102 5.89709 3.88412 6.01235 3.85119 6.13902C3.81826 6.26568 3.82054 6.39893 3.85778 6.5244L4.50465 8.9394C4.53827 9.06058 4.60308 9.17081 4.69263 9.2591C4.78218 9.34738 4.89332 9.41063 5.01496 9.44252L7.42278 10.0894C7.54824 10.1266 7.68149 10.1289 7.80816 10.096C7.93482 10.0631 8.05009 9.99616 8.14153 9.90252L9.90246 8.14159C9.9961 8.05015 10.063 7.93488 10.0959 7.80822C10.1289 7.68155 10.1266 7.5483 10.0893 7.42284L9.4209 5.01502ZM7.39403 8.60877L5.78403 8.17752L5.35278 6.56752L6.53153 5.38877L8.14153 5.82002L8.57278 7.43002L7.39403 8.60877Z" fill="#EC672B"/>
<path d="M39.86 30.2143C38.9936 29.3544 37.9124 28.7427 36.7291 28.443C35.5457 28.1434 34.3037 28.1668 33.1325 28.5108L13.489 8.86741C15.4297 2.13272 7.12811 -2.7979 2.13998 2.13991C-2.84814 7.07772 2.13998 15.4512 8.88186 13.5033L28.5109 33.1324C27.1597 37.3083 30.624 41.9874 35.0372 41.8437C41.0387 41.9155 44.1437 34.419 39.86 30.2143ZM38.8394 38.8393C34.7784 42.8858 28.0581 38.5446 29.9915 33.1684C30.0331 33.0358 30.0384 32.8945 30.0068 32.7593C29.9752 32.624 29.9079 32.4997 29.8119 32.3993L9.58623 12.1737C9.48545 12.0832 9.36295 12.0205 9.23068 11.9915C9.09842 11.9625 8.9609 11.9683 8.83154 12.0083C3.46967 13.9849 -0.893145 7.2071 3.16061 3.16053C7.21436 -0.886028 13.9778 3.45522 12.0084 8.83147C11.9684 8.96083 11.9626 9.09834 11.9916 9.23061C12.0206 9.36288 12.0833 9.48538 12.1737 9.58616L32.4137 29.8262C32.5539 29.9447 32.7269 30.0174 32.9097 30.0346C32.9959 30.0346 33.0822 30.0346 33.1684 29.9915C38.5303 28.0149 42.8931 34.7927 38.8394 38.8393Z" fill="#EC672B"/>
<path d="M37.8618 32.7154C37.8282 32.5943 37.7634 32.484 37.6739 32.3957C37.5843 32.3075 37.4732 32.2442 37.3515 32.2123L34.4765 31.4289C34.3511 31.3916 34.2178 31.3894 34.0912 31.4223C33.9645 31.4552 33.8492 31.5221 33.7578 31.6158L31.6015 33.772C31.5079 33.8634 31.441 33.9787 31.4081 34.1054C31.3751 34.232 31.3774 34.3653 31.4147 34.4908L32.1981 37.3658C32.23 37.4874 32.2932 37.5985 32.3815 37.6881C32.4698 37.7776 32.58 37.8425 32.7012 37.8761L35.6193 38.6595C35.7448 38.6967 35.8781 38.699 36.0047 38.6661C36.1314 38.6332 36.2467 38.5663 36.3381 38.4726L38.4943 36.3164C38.588 36.2249 38.6549 36.1097 38.6878 35.983C38.7207 35.8563 38.7185 35.7231 38.6812 35.5976L37.8618 32.7154ZM35.605 37.1501L33.4918 36.5823L32.924 34.4692L34.4693 32.9239L36.5825 33.4917L37.1503 35.6048L35.605 37.1501Z" fill="#EC672B"/>
<path d="M23.2928 15.9256C23.3874 15.9261 23.4812 15.908 23.5687 15.8722C23.6563 15.8365 23.736 15.7838 23.8031 15.7171L29.4022 10.1109C29.4978 10.0073 29.5631 9.87949 29.591 9.74133C29.6189 9.60316 29.6083 9.45999 29.5603 9.32746C29.2405 8.51162 29.1156 7.63238 29.1956 6.75975C29.2755 5.88712 29.5582 5.04523 30.021 4.30112C30.4838 3.55702 31.1139 2.93127 31.8613 2.47371C32.6086 2.01615 33.4525 1.73942 34.3256 1.66558L32.2628 3.74996C32.1692 3.84139 32.1023 3.95666 32.0694 4.08332C32.0364 4.20999 32.0387 4.34324 32.0759 4.46871L33.1325 8.40745C33.1655 8.52777 33.2292 8.63743 33.3174 8.72564C33.4057 8.81386 33.5153 8.87759 33.6356 8.91058L37.5744 9.96714C37.6365 9.97421 37.6992 9.97421 37.7613 9.96714C37.8558 9.96769 37.9496 9.94956 38.0372 9.91379C38.1248 9.87802 38.2044 9.82532 38.2716 9.75871L40.3344 7.69589C40.2605 8.56906 39.9838 9.41292 39.5263 10.1603C39.0687 10.9076 38.4429 11.5378 37.6988 12.0006C36.9547 12.4634 36.1128 12.746 35.2402 12.826C34.3676 12.9059 33.4883 12.781 32.6725 12.4612C32.5409 12.4071 32.3962 12.3932 32.2568 12.4213C32.1173 12.4495 31.9893 12.5184 31.8891 12.6193L26.29 18.2256C26.223 18.2926 26.1698 18.3722 26.1336 18.4597C26.0973 18.5473 26.0786 18.6411 26.0786 18.7359C26.0786 18.8307 26.0973 18.9245 26.1336 19.0121C26.1698 19.0996 26.223 19.1792 26.29 19.2462C26.357 19.3132 26.4366 19.3664 26.5241 19.4027C26.6117 19.4389 26.7055 19.4576 26.8003 19.4576C26.8951 19.4576 26.9889 19.4389 27.0765 19.4027C27.1641 19.3664 27.2436 19.3132 27.3106 19.2462L32.5863 13.9562C37.5313 15.6884 42.7925 11.0021 41.6641 5.90621C41.6327 5.7566 41.5545 5.62089 41.4407 5.51878C41.327 5.41667 41.1837 5.35349 41.0316 5.33839C40.926 5.33127 40.8201 5.34542 40.7201 5.37999C40.6201 5.41456 40.528 5.46885 40.4494 5.53964L37.5744 8.41464L34.4406 7.5737L33.5709 4.46871L36.4459 1.5937C36.5169 1.51542 36.5708 1.42324 36.6042 1.32301C36.6376 1.22279 36.6498 1.11671 36.64 1.01152C36.6352 0.85472 36.5791 0.703814 36.4805 0.581826C36.3819 0.459838 36.2461 0.373467 36.0938 0.335892C30.9619 -0.763795 26.3547 4.4687 28.0725 9.39933L22.7825 14.6965C22.6811 14.7971 22.612 14.9255 22.5839 15.0655C22.5558 15.2054 22.5701 15.3506 22.6248 15.4825C22.6796 15.6143 22.7723 15.7269 22.8913 15.8058C23.0103 15.8847 23.1501 15.9264 23.2928 15.9256Z" fill="#EC672B"/>
<path d="M18.204 26.2899L12.9284 31.5655C12.3348 30.5263 11.4736 29.6651 10.4343 29.0715L15.7171 23.803C15.8525 23.6677 15.9285 23.4841 15.9285 23.2927C15.9285 23.1013 15.8525 22.9178 15.7171 22.7824C15.5818 22.6471 15.3982 22.571 15.2068 22.571C15.0154 22.571 14.8319 22.6471 14.6965 22.7824L9.02558 28.4534C2.31246 26.4337 -2.76192 34.7209 2.21902 39.7809C7.19996 44.8409 15.5662 39.6874 13.5465 32.9815L19.2246 27.3105C19.36 27.1752 19.436 26.9916 19.436 26.8002C19.436 26.6088 19.36 26.4253 19.2246 26.2899C19.0893 26.1546 18.9057 26.0785 18.7143 26.0785C18.5229 26.0785 18.3394 26.1546 18.204 26.2899ZM10.8368 38.7602C10.3382 39.2594 9.74605 39.6554 9.09426 39.9256C8.44247 40.1958 7.74381 40.3349 7.03824 40.3349C6.33266 40.3349 5.63401 40.1958 4.98222 39.9256C4.33043 39.6554 3.73828 39.2594 3.23964 38.7602C-0.152856 35.4612 2.35558 29.5099 7.03464 29.6249C11.7137 29.5099 14.2293 35.4612 10.8368 38.7602Z" fill="#EC672B"/>
<path d="M8.3356 31.5008C8.24416 31.4071 8.12889 31.3402 8.00223 31.3073C7.87557 31.2744 7.74231 31.2767 7.61685 31.3139L4.68435 32.1045C4.56185 32.137 4.45012 32.2014 4.3605 32.291C4.27088 32.3806 4.20655 32.4923 4.17404 32.6148L3.38341 35.5689C3.34617 35.6944 3.34389 35.8276 3.37683 35.9543C3.40976 36.0809 3.47665 36.1962 3.57029 36.2876L5.72654 38.4439C5.81797 38.5375 5.93324 38.6044 6.05991 38.6373C6.18657 38.6703 6.31982 38.668 6.44529 38.6308L9.39935 37.8401C9.52185 37.8076 9.63358 37.7433 9.7232 37.6537C9.81282 37.5641 9.87715 37.4523 9.90966 37.3298L10.7003 34.3758C10.7375 34.2503 10.7398 34.117 10.7069 33.9904C10.6739 33.8637 10.607 33.7485 10.5134 33.657L8.3356 31.5008ZM8.61591 36.532L6.45966 37.1142L4.87841 35.533L5.4606 33.3767L7.61685 32.8017L9.1981 34.383L8.61591 36.532Z" fill="#EC672B"/>
</svg>
